<?xml version="1.0" encoding="utf-8"?>
<!-- Generator: Adobe Illustrator 27.0.0, SVG Export Plug-In . SVG Version: 6.00 Build 0)  -->
<svg version="1.1" id="Layer_1" xmlns="http://www.w3.org/2000/svg" xmlns:xlink="http://www.w3.org/1999/xlink" x="0px" y="0px"
	 viewBox="0 0 50 50" style="enable-background:new 0 0 50 50;" xml:space="preserve">
<style type="text/css">
	.st0{fill:#79D8F2;}
</style>
<path class="st0" d="M41.1,39H34v-2h7.1c0.3,0,0.5,0,0.8,0l0.2,2C41.8,39,41.4,39,41.1,39z M31,39h-8v-2h8V39z M20,39h-8v-2h8V39z
	 M8.8,39c-3-0.3-5.7-1.9-7.3-4.5l1.7-1.1c1.3,2,3.5,3.4,5.8,3.6L8.8,39z M45.3,37.9l-1-1.8c2.1-1.1,3.5-3.2,3.6-5.6l2,0.1
	C49.8,33.7,48,36.5,45.3,37.9z M0.2,31.4C0.1,30.7,0,30,0,29.3C0,27,0.8,24.8,2.3,23l1.5,1.3c-1.2,1.4-1.8,3.2-1.8,5
	c0,0.6,0.1,1.1,0.2,1.6L0.2,31.4z M47.7,28c-0.7-2.2-2.6-4-4.9-4.6l0.5-1.9c3,0.7,5.4,3,6.3,5.9L47.7,28z M40,22.1
	c0.1-0.5,0.1-1,0.1-1.4c0-2-0.5-3.9-1.5-5.6l1.7-1c1.2,2,1.7,4.3,1.8,6.6C41.5,21.6,40,22.1,40,22.1z M5.9,22.7l-1-1.7
	c0.5-0.3,1-0.5,1.5-0.7c0.1-2,1.2-3.9,2.8-5.1l1.2,1.6c-1.3,1-2,2.4-2,4v1L7.6,22C7,22.1,6.4,22.4,5.9,22.7z M18,18.3l-1.1-1.1
	c-1.1-1.1-2.7-1.6-4.2-1.4l-0.3-2c1.7-0.2,3.4,0.2,4.8,1.1c0.2-0.4,0.4-0.7,0.6-1.1l1.7,1.1c-0.4,0.6-0.7,1.3-1,2L18,18.3z M37,12.9
	c-1.7-1.8-4-2.9-6.4-3.2l0.3-2c2.9,0.4,5.6,1.7,7.6,3.8L37,12.9z M21.2,12.7l-1.4-1.4c2.1-2,4.8-3.3,7.7-3.6l0.2,2
	C25.3,9.9,23,11,21.2,12.7z"/>
</svg>
